<svg xmlns="http://www.w3.org/2000/svg" fill="none" viewBox="0 0 820 312">
  <path fill="#181818" d="M820 0H0v312h820V0z"/>
  <rect width="8" height="66" x="270" y="103" fill="#3CFF97" rx="2"/>
  <rect width="8" height="66" x="290" y="191" fill="#D30151" rx="2" transform="rotate(-90 290 191)"/>
  <circle cx="274" cy="185" r="17" fill="#181818" stroke="#fff" stroke-width="4"/>
  <path fill="#fff" d="M352.336 123.024c3.264 0 5.888 1.008 7.872 3.024 2.016 1.984 3.024 4.768 3.024 8.352V150h-6.72v-14.688c0-2.08-.528-3.664-1.584-4.752-1.056-1.12-2.496-1.68-4.32-1.68-1.824 0-3.28.56-4.368 1.68-1.056 1.088-1.584 2.672-1.584 4.752V150h-6.72v-14.688c0-2.08-.528-3.664-1.584-4.752-1.056-1.12-2.496-1.68-4.32-1.68-1.856 0-3.328.56-4.416 1.68-1.056 1.088-1.584 2.672-1.584 4.752V150h-6.72v-26.592h6.72v3.216c.864-1.12 1.968-2 3.312-2.64 1.376-.64 2.88-.96 4.512-.96 2.08 0 3.936.448 5.568 1.344a9.099 9.099 0 013.792 3.744c.864-1.536 2.112-2.768 3.744-3.696a10.86 10.86 0 015.376-1.392zm29.081 27.408c-2.56 0-4.864-.56-6.912-1.68-2.048-1.152-3.664-2.768-4.848-4.848-1.152-2.08-1.728-4.48-1.728-7.2 0-2.72.592-5.12 1.776-7.2 1.216-2.08 2.864-3.68 4.944-4.8 2.08-1.152 4.4-1.728 6.96-1.728 2.56 0 4.88.576 6.96 1.728 2.08 1.12 3.712 2.72 4.896 4.8 1.216 2.08 1.824 4.48 1.824 7.2 0 2.72-.624 5.12-1.872 7.2a12.755 12.755 0 01-4.992 4.848c-2.08 1.12-4.416 1.68-7.008 1.68zm0-5.856a7.006 7.006 0 003.408-.864c1.088-.608 1.952-1.504 2.592-2.688.64-1.184.96-2.624.96-4.32 0-2.528-.672-4.464-2.016-5.808-1.312-1.376-2.928-2.064-4.848-2.064s-3.536.688-4.848 2.064c-1.28 1.344-1.92 3.28-1.92 5.808s.624 4.48 1.872 5.856c1.28 1.344 2.88 2.016 4.8 2.016zm26.625-15.648v12.864c0 .896.208 1.552.624 1.968.448.384 1.184.576 2.208.576h3.12V150h-4.224c-5.664 0-8.496-2.752-8.496-8.256v-12.816h-3.168v-5.52h3.168v-6.576h6.768v6.576h5.952v5.52h-5.952zm14.194-8.688c-1.184 0-2.176-.368-2.976-1.104-.768-.768-1.152-1.712-1.152-2.832 0-1.12.384-2.048 1.152-2.784.8-.768 1.792-1.152 2.976-1.152s2.16.384 2.928 1.152c.8.736 1.2 1.664 1.2 2.784 0 1.12-.4 2.064-1.2 2.832-.768.736-1.744 1.104-2.928 1.104zm3.312 3.168V150h-6.72v-26.592h6.72zm18.447 27.024c-2.56 0-4.864-.56-6.912-1.68-2.048-1.152-3.664-2.768-4.848-4.848-1.152-2.08-1.728-4.48-1.728-7.2 0-2.72.592-5.12 1.776-7.2 1.216-2.08 2.864-3.68 4.944-4.8 2.08-1.152 4.4-1.728 6.96-1.728 2.56 0 4.88.576 6.96 1.728 2.08 1.12 3.712 2.72 4.896 4.8 1.216 2.08 1.824 4.48 1.824 7.2 0 2.72-.624 5.12-1.872 7.2a12.755 12.755 0 01-4.992 4.848c-2.08 1.12-4.416 1.68-7.008 1.68zm0-5.856a7.006 7.006 0 003.408-.864c1.088-.608 1.952-1.504 2.592-2.688.64-1.184.96-2.624.96-4.32 0-2.528-.672-4.464-2.016-5.808-1.312-1.376-2.928-2.064-4.848-2.064s-3.536.688-4.848 2.064c-1.28 1.344-1.92 3.28-1.92 5.808s.624 4.48 1.872 5.856c1.28 1.344 2.88 2.016 4.8 2.016zm33.537-21.552c3.168 0 5.728 1.008 7.68 3.024 1.952 1.984 2.928 4.768 2.928 8.352V150h-6.72v-14.688c0-2.112-.528-3.728-1.584-4.848-1.056-1.152-2.496-1.728-4.32-1.728-1.856 0-3.328.576-4.416 1.728-1.056 1.12-1.584 2.736-1.584 4.848V150h-6.72v-26.592h6.72v3.312c.896-1.152 2.032-2.048 3.408-2.688 1.408-.672 2.944-1.008 4.608-1.008zM387.584 182.704c0-2.752.56-5.152 1.68-7.2 1.12-2.08 2.672-3.68 4.656-4.8 1.984-1.152 4.256-1.728 6.816-1.728 3.296 0 6.016.832 8.16 2.496 2.176 1.632 3.632 3.936 4.368 6.912h-7.248c-.384-1.152-1.04-2.048-1.968-2.688-.896-.672-2.016-1.008-3.36-1.008-1.92 0-3.44.704-4.56 2.112-1.12 1.376-1.68 3.344-1.68 5.904 0 2.528.56 4.496 1.68 5.904 1.12 1.376 2.64 2.064 4.56 2.064 2.72 0 4.496-1.216 5.328-3.648h7.248c-.736 2.88-2.192 5.168-4.368 6.864-2.176 1.696-4.896 2.544-8.16 2.544-2.56 0-4.832-.56-6.816-1.68-1.984-1.152-3.536-2.752-4.656-4.8-1.12-2.08-1.68-4.496-1.68-7.248zm42.411 13.728c-2.56 0-4.864-.56-6.912-1.68-2.048-1.152-3.664-2.768-4.848-4.848-1.152-2.08-1.728-4.48-1.728-7.2 0-2.72.592-5.12 1.776-7.2 1.216-2.08 2.864-3.68 4.944-4.8 2.08-1.152 4.4-1.728 6.96-1.728 2.56 0 4.88.576 6.96 1.728 2.08 1.12 3.712 2.72 4.896 4.8 1.216 2.08 1.824 4.48 1.824 7.2 0 2.72-.624 5.12-1.872 7.2a12.755 12.755 0 01-4.992 4.848c-2.08 1.12-4.416 1.68-7.008 1.68zm0-5.856a7.006 7.006 0 003.408-.864c1.088-.608 1.952-1.504 2.592-2.688.64-1.184.96-2.624.96-4.32 0-2.528-.672-4.464-2.016-5.808-1.312-1.376-2.928-2.064-4.848-2.064s-3.536.688-4.848 2.064c-1.28 1.344-1.92 3.28-1.92 5.808s.624 4.48 1.872 5.856c1.28 1.344 2.88 2.016 4.8 2.016zm33.537-21.552c3.168 0 5.728 1.008 7.68 3.024 1.952 1.984 2.928 4.768 2.928 8.352V196h-6.72v-14.688c0-2.112-.528-3.728-1.584-4.848-1.056-1.152-2.496-1.728-4.32-1.728-1.856 0-3.328.576-4.416 1.728-1.056 1.12-1.584 2.736-1.584 4.848V196h-6.72v-26.592h6.72v3.312c.896-1.152 2.032-2.048 3.408-2.688 1.408-.672 2.944-1.008 4.608-1.008zm24.823 5.904v12.864c0 .896.208 1.552.624 1.968.448.384 1.184.576 2.208.576h3.12V196h-4.224c-5.664 0-8.496-2.752-8.496-8.256v-12.816h-3.168v-5.52h3.168v-6.576h6.768v6.576h5.952v5.52h-5.952zm17.505-1.392c.864-1.408 1.984-2.512 3.36-3.312 1.408-.8 3.008-1.2 4.8-1.2v7.056h-1.776c-2.112 0-3.712.496-4.8 1.488-1.056.992-1.584 2.72-1.584 5.184V196h-6.72v-26.592h6.72v4.128zm24.494 22.896c-2.56 0-4.864-.56-6.912-1.68-2.048-1.152-3.664-2.768-4.848-4.848-1.152-2.08-1.728-4.48-1.728-7.2 0-2.72.592-5.12 1.776-7.2 1.216-2.08 2.864-3.68 4.944-4.8 2.08-1.152 4.4-1.728 6.96-1.728 2.56 0 4.88.576 6.96 1.728 2.08 1.12 3.712 2.72 4.896 4.8 1.216 2.08 1.824 4.48 1.824 7.2 0 2.72-.624 5.12-1.872 7.2a12.755 12.755 0 01-4.992 4.848c-2.08 1.12-4.416 1.68-7.008 1.68zm0-5.856a7.006 7.006 0 003.408-.864c1.088-.608 1.952-1.504 2.592-2.688.64-1.184.96-2.624.96-4.32 0-2.528-.672-4.464-2.016-5.808-1.312-1.376-2.928-2.064-4.848-2.064s-3.536.688-4.848 2.064c-1.28 1.344-1.92 3.28-1.92 5.808s.624 4.48 1.872 5.856c1.28 1.344 2.88 2.016 4.8 2.016zm25.522-30.096V196h-6.72v-35.52h6.72zm13.359 0V196h-6.72v-35.52h6.72z"/>
</svg>